<mxfile host="app.diagrams.net" modified="2024-07-20T02:49:35.600Z" agent="Mozilla/5.0 (Windows NT 10.0; Win64; x64) AppleWebKit/537.36 (KHTML, like Gecko) Chrome/126.0.0.0 Safari/537.36" etag="_u9bBQpPZGjYEp3S7Nlm" version="24.7.1" type="device">
  <diagram name="Page-1" id="gTsPeEO3ISL1cUPlWRWv">
    <mxGraphModel dx="1105" dy="635" grid="1" gridSize="10" guides="1" tooltips="1" connect="1" arrows="1" fold="1" page="1" pageScale="1" pageWidth="850" pageHeight="1100" math="0" shadow="0">
      <root>
        <mxCell id="0" />
        <mxCell id="1" parent="0" />
        <mxCell id="Q4lnhPmsgSCfOyDL6W96-1" value="" style="rounded=0;whiteSpace=wrap;html=1;" parent="1" vertex="1">
          <mxGeometry x="105" y="60" width="640" height="360" as="geometry" />
        </mxCell>
        <mxCell id="mDLb55RAoPp85ospDN5C-1" value="" style="rounded=0;whiteSpace=wrap;html=1;" parent="1" vertex="1">
          <mxGeometry x="105" y="570" width="640" height="360" as="geometry" />
        </mxCell>
        <mxCell id="mDLb55RAoPp85ospDN5C-3" value="&lt;font style=&quot;font-size: 36px;&quot;&gt;X&lt;/font&gt;" style="rounded=0;whiteSpace=wrap;html=1;" parent="1" vertex="1">
          <mxGeometry x="405" y="210" width="40" height="60" as="geometry" />
        </mxCell>
        <mxCell id="mDLb55RAoPp85ospDN5C-4" value="&lt;font style=&quot;font-size: 27px;&quot;&gt;A&lt;/font&gt;" style="rounded=0;whiteSpace=wrap;html=1;" parent="1" vertex="1">
          <mxGeometry x="375" y="180" width="30" height="30" as="geometry" />
        </mxCell>
        <mxCell id="mDLb55RAoPp85ospDN5C-5" value="&lt;font style=&quot;font-size: 27px;&quot;&gt;A&lt;/font&gt;" style="rounded=0;whiteSpace=wrap;html=1;" parent="1" vertex="1">
          <mxGeometry x="375" y="270" width="30" height="30" as="geometry" />
        </mxCell>
        <mxCell id="mDLb55RAoPp85ospDN5C-6" value="&lt;span style=&quot;font-size: 27px;&quot;&gt;Z&lt;/span&gt;" style="rounded=0;whiteSpace=wrap;html=1;" parent="1" vertex="1">
          <mxGeometry x="375" y="270" width="30" height="30" as="geometry" />
        </mxCell>
        <mxCell id="mDLb55RAoPp85ospDN5C-7" value="&lt;span style=&quot;font-size: 27px;&quot;&gt;-+&lt;/span&gt;" style="rounded=0;whiteSpace=wrap;html=1;" parent="1" vertex="1">
          <mxGeometry x="445" y="180" width="30" height="30" as="geometry" />
        </mxCell>
        <mxCell id="mDLb55RAoPp85ospDN5C-9" value="Click [X]" style="text;html=1;align=center;verticalAlign=middle;whiteSpace=wrap;rounded=0;" parent="1" vertex="1">
          <mxGeometry x="373" y="380" width="105" height="30" as="geometry" />
        </mxCell>
        <mxCell id="mDLb55RAoPp85ospDN5C-13" value="&lt;span style=&quot;color: rgb(32, 33, 36); font-family: &amp;quot;Google Sans&amp;quot;, Arial, sans-serif; text-align: left; background-color: rgb(255, 255, 255);&quot;&gt;&lt;font style=&quot;font-size: 18px;&quot;&gt;Lithium (Li)&lt;/font&gt;&lt;/span&gt;" style="text;html=1;align=center;verticalAlign=middle;whiteSpace=wrap;rounded=0;fontStyle=0" parent="1" vertex="1">
          <mxGeometry x="368" y="610" width="115" height="30" as="geometry" />
        </mxCell>
        <mxCell id="iQIkoal4VYbciuHYIKVW-34" value="1s^22s^1" style="text;html=1;align=center;verticalAlign=middle;whiteSpace=wrap;rounded=0;fontSize=12;" vertex="1" parent="1">
          <mxGeometry x="397.25" y="840" width="60" height="30" as="geometry" />
        </mxCell>
        <mxCell id="iQIkoal4VYbciuHYIKVW-36" value="[He]2s^1" style="text;html=1;align=center;verticalAlign=middle;whiteSpace=wrap;rounded=0;fontSize=12;" vertex="1" parent="1">
          <mxGeometry x="375" y="870" width="104.5" height="30" as="geometry" />
        </mxCell>
        <mxCell id="iQIkoal4VYbciuHYIKVW-37" value="" style="ellipse;whiteSpace=wrap;html=1;aspect=fixed;" vertex="1" parent="1">
          <mxGeometry x="385.25" y="697.5" width="80" height="80" as="geometry" />
        </mxCell>
        <mxCell id="iQIkoal4VYbciuHYIKVW-38" value="" style="ellipse;whiteSpace=wrap;html=1;aspect=fixed;fillColor=none;" vertex="1" parent="1">
          <mxGeometry x="368" y="680" width="115" height="115" as="geometry" />
        </mxCell>
        <mxCell id="iQIkoal4VYbciuHYIKVW-39" value="" style="ellipse;whiteSpace=wrap;html=1;aspect=fixed;fillColor=#FF0000;strokeColor=none;" vertex="1" parent="1">
          <mxGeometry x="407.75" y="720" width="35" height="35" as="geometry" />
        </mxCell>
        <mxCell id="iQIkoal4VYbciuHYIKVW-40" value="" style="ellipse;whiteSpace=wrap;html=1;aspect=fixed;fillColor=#000000;strokeColor=none;" vertex="1" parent="1">
          <mxGeometry x="458" y="730" width="15" height="15" as="geometry" />
        </mxCell>
        <mxCell id="iQIkoal4VYbciuHYIKVW-41" value="" style="ellipse;whiteSpace=wrap;html=1;aspect=fixed;fillColor=#000000;strokeColor=none;" vertex="1" parent="1">
          <mxGeometry x="379.25" y="730" width="15" height="15" as="geometry" />
        </mxCell>
        <mxCell id="iQIkoal4VYbciuHYIKVW-43" value="" style="ellipse;whiteSpace=wrap;html=1;aspect=fixed;fillColor=#000000;strokeColor=none;" vertex="1" parent="1">
          <mxGeometry x="368.25" y="758" width="15" height="15" as="geometry" />
        </mxCell>
      </root>
    </mxGraphModel>
  </diagram>
</mxfile>
